<?xml version="1.0" encoding="UTF-8"?>
<svg version="1.1" viewBox="0 0 1600 1600" width="1280" height="1280" xmlns="http://www.w3.org/2000/svg">
<path transform="translate(688,469)" d="m0 0h22l9 3v2l6 1 9 8 7 9 8 14 7 18 4 15 3 14 2 19 1 28 1 127h2l2 4 13-1 9-6 5-5-4-11-3-10-4-25-2-17-1-21v-51l1-25 3-23 4-18 5-13 5-10 8-10 5-5 5-4 9-6 7-1h24l9 3 9 5 5 5 6 5 7 10 8 16 5 19 2 25 2 41v37h-54l-1-2-1-61-2-11-4-5-5 1-4 7-2 13v40l2 19 4 9 9 15v2h2l7 11 14 20 6 9 5 9 6 10 2 5 4 8 6 14 14 1 10 4 14 1 4 2h6l3-3 4 1 3 11 7 5 5 2 1 19-4 18-5 2v2l4 1 1 2 5 3 9 9-1 3-5-3-2-2-10-1-6-3h-2v3l10 4 10 5 6 2-1 4-10 5h-3l1 2h7l8 1h2l2-5 5-2v-2h2v-2l-2-1 6-2v3l6-1 5 4 5 3 1 5h2l1-8 3-3 7-3 10 5h8l3-2 2-5 8-4 1 4 6 5v8l-2 2-8 1-2 4-3 5-5 1v5l4 2-1 6-1 5 5 13 8 6 4 5 4 10 1 10-1 18-2 6-3 4h-2v8l8-1 6 4 2 4 4 1-2 6-8 6-11 5h-6l2-16 1-4-7 3-1 2 3 1v4h-3v11h2l-1 4h-2l-1 5-4 3-4 1h-12l-5-2-3-4-7-1-3-4v-8l-4-5-6-4-16-12v-5l1-1 11 1 7-1-1-5-24-6-4-4v-8l5-1 17 2 10 3v-11l2-10-5 5-10-1-11-5-3-2v-14l1-8-7-1-5 1h-6l-3 2-6-1-3-3v-2h-6l-8-3-7 3-7 2-5 3-6 4-5 7-6 5-6 7h-2v8l-3 3-4-1-2-4-5 2-6 1-10 3-5 8v7l-6 4-10 1h-14l-7-6-4-6-2-1h-18l-9-2-9 1-16 3h-15l-4-2-7-1-5-2-5-3-3 8 2 36 13 2 2 1-1 5-10 14-7 7-7 5h-3v2l-8 3h-24l-8-3-4-2 1-3 4-1 1-3 9-6 12-12 8-11 5-8 5-13 3-16 1-2v-9l-2-5-6-2-4-3-4-1-1-3h-2v-2h-5l-1 3-3 3-2 23-1 1h-7l-3-2v-8l1-4 1-13h-4l-3 14 2 6-1 4-5 1-3 5-3 2-21 7-2 5-5-4-9-4-8-2-10 1-11-11-3-11-5-7 1-4 3-7h3l-1-7-2-1-2 4-7 16-4 14-4 1-12-3 1-14 2-10 8-15 11-12h2l1-3 5 1-1-3-4-2v-4l-4-1v-3l-5-2-2-1-2-4v-3l6-2-1-2-7 4-10 8-6 9h-2l-1 6v2l-1 5-3 12h-4l-1-2v-108l-16 1-1 216h-58l-1-1v-514l1-1 58 1 1 183 14 1 2 1v-185l9-1 50 1v269l-5 8-1 4h-4l-2 6-9 15-4 7v7l9 9 7 4 6 2h5l1-6-5-6v-2h-2l-1-6 1-11v-7l1-8 1-5 3 4 4-5 5-10 3-11 7-15 1-36 1-84 2-37 3-20 5-20 5-15 8-15h2l1-4 9-10 8-7 4-3zm10 86-4 4-3 10-1 14v83l-6 2-8 1-2 4v3h2l1-3 9-1 1 2 2-2 6 8 3 2h3l1 4 5 5 8-1 3-1 11-1 3-2v-5l-11-6-5-1-6 1h-2l1-13v-61l-1-28-2-12-3-5zm15 140 1 5 5 10h6l1-2v-6l-9-6zm125 16-20 1-16 3 2 4 1 3 6 2 7-1 9 2 14-1 9-1 7-2 8 3 9 7 4 5h2v2l3 3h2v2l5 4h5l-2-5-6-7h-2l-2-4-13-11-11-6-7-2zm-236 119m-5 0-7 3v2l9-1 3-3zm363 1-3 1 1 7 7 2 4-1-2-1-2-6zm-360 25 2 4v-4zm395 25-5 2v4l5 2v2l6 3 5 4 9 2v-4l-4-4-1-2-6-3-5-6zm18 51m2 1-3 2 1 4 4 1v-6zm-11 19m62 3v5l2-4zm-41 12v2h2v-2z" fill="#FDFDFD"/>
<path transform="translate(1184,479)" d="m0 0h59l27 2 3 1v2l10 2 3 3 3 1 5 5v2l3 1 8 13 5 13 4 14 3 26 1 11 1 28v284l-2 39-3 22-5 17-10 16-12 9-10 3-9 1-83 1-2-2v-513zm58 88-1 2v334l1 2h6l7-6 3-8 1-5 1-18v-278l-2-13-3-5h-2l-1-3z" fill="#040404"/>
<path transform="translate(373,469)" d="m0 0h22l8 3 6 3 6 4v2l4 2 5 6v2h2l6 10 8 16 5 15 4 18 3 34 1 17 1 45v22l-1 1h-58l-1-82-1-21-3-9-6-1-4 4-3 14v322l3 16 4 4 7-1 1-4 2-6 1-16 1-94h-11v-78l5-1h62l2 2v275l-1 1h-37l-5-35-4 12-4 10-6 11-5 6-9 6h-17l-10-6-9-9-9-14-4-8-4-10-4-12-5-25-2-22-1-22-1-52v-175l1-44 2-45 3-19 3-15 3-5 4-11 9-17 8-10 10-9 9-4z" fill="#050505"/>
<path transform="translate(476,478)" d="m0 0 58 1 1 183 14 1 2 1v-185l9-1 50 1v269l-5 8-1 4h-4l-2 6-9 15-4 7v7l9 9 7 4 7 3 2 1v13l-10 4h-3v2l-12 3 1 5-10 6-10 12-3 5h-2l-1 6v2l-1 5-3 12h-4l-1-2v-108l-16 1-1 216h-58l-1-1v-514z" fill="#030303"/>
<path transform="translate(688,469)" d="m0 0h22l9 3v2l6 1 9 8 7 9 8 14 7 18 4 15 3 14 2 19 1 28v127h-15l-11-4-12-8v-2l-3-1v-10l-8-5-5-5v-2l6-2 11-1 2-1v-5l-10-5-5-1-6 1-2-1v-74l-1-28-2-12-3-5-7 1-3 12-1 14v83l-2 2-15 2-2 8h-2v2l-9 7-9 10-6 9-7 6-6 7h-1v-117l2-37 3-20 5-20 5-15 8-15h2l1-4 9-10 8-7 4-3z" fill="#040404"/>
<path transform="translate(836,469)" d="m0 0h24l9 3 9 5 5 5 6 5 7 10 8 16 5 19 2 25 2 41v37h-54l-1-2-1-61-2-11-4-5-5 1-4 7-2 13v40l2 19 4 9 9 15v2h2l7 11 14 20 6 9 5 9 6 10 2 5 4 8 4 9-1 4h-6l-11-10v-2h-2l-4-5-11-9-11-6-7-2-14-1-20 1-20 2-4-7-3-10-4-25-2-17-1-21v-51l1-25 3-23 4-18 5-13 5-10 8-10 5-5 5-4 9-6z" fill="#060606"/>
<path transform="translate(1066,479)" d="m0 0h97l1 1v102l-2 1h-20l-17-1v94l1 3 35 1v97l-5 1-31-1v85h-2l-4-12-9-10-13-9-9-5-18-5-4-1v-44l1-1 9-2 18-5 22-6 10-3 9-4 6-2 9-5 3-1 1-7-1-5v-7l1-5-31 4-5-1 2-4 9-6 8-6 3-3 1-7-2-1h-47l-16 1-9 1-1-1z" fill="#070707"/>
<path transform="translate(925,479)" d="m0 0h127l1 4-1 99h-34v121l-5 3-1 5v17l-4 5-16 4-13 4-9 3-11 1v-163l-28 1-6-1z" fill="#060606"/>
<path transform="translate(1139,890)" d="m0 0h28v104h-72l2-4 11-6 9-7 8-10 3-6h2l2-6 4-9 3-9 1-5v-28l-2-12z" fill="#060606"/>
<path transform="translate(898,968)" d="m0 0 4 1-1 4-4 6-9 10-8 7-8 5-7 2-1 1h-25l-1-2-6-1v-2l-5-1-1-3-4-1-6-5-10-12v-2h-2l2-4h33l52-2z" fill="#101010"/>
<path transform="translate(726,920)" d="m0 0 2 3 3 24 1 18 13 2 2 1-1 5-10 14-7 7-7 5h-3v2l-8 3h-24l-8-3-4-2 1-3 4-1 1-3 9-6 12-12 8-11 5-8 5-13 3-16z" fill="#0D0D0D"/>
<path transform="translate(1078,868)" d="m0 0 6 1 8 7 6 8 6 12 4 13 1 8v13l-3 15-4 10-3 5-6-1-6-7-3-4v-6l3-9 1-10-3-16-8-16-5-9v-6z" fill="#181818"/>
<path transform="translate(591,870)" d="m0 0 4 1 6 9-1 6-4 5-3 9-4 9-4 14-4 1-12-3 1-14 2-10 8-15z" fill="#181818"/>
<path transform="translate(571,934)" d="m0 0h17l5 5 8 10 6 5 3 1 1 17v3h-6l-5-3v-2l-4-1-12-11-8-10-3-5-3-6z" fill="#191919"/>
<path transform="translate(959,950)" d="m0 0 4 2 6 11 6 9 1 3 3 1v2l4 2 4 3v2l4 1 7 5-1 4-37-1-1-1z" fill="#090909"/>
<path transform="translate(1015,796)" d="m0 0 4 1-1 24-11 6h-9l-6-7-11-9 1-5 2-2 9-3 12-2 4-2z" fill="#222"/>
<path transform="translate(672,938)" d="m0 0h7l10 2-1 5-13 14-12 9-6 3h-6l-3-6 1-5 11-9 7-8z" fill="#262626"/>
<path transform="translate(552,960)" d="m0 0 3 3 5 9 11 12 9 6 3 3v2l-31-1-1-1v-32z" fill="#1E1E1E"/>
<path transform="translate(1088,722)" d="m0 0h15l5 6 3 9-6 3-5 5-7-1-4-5-4-8 1-8z" fill="#FEFEFE"/>
<path transform="translate(988,892)" d="m0 0h6l8 4 6 4 7 3-4 8-1 1h-8l-12-3-3-2v-14z" fill="#060606"/>
<path transform="translate(982,925)" d="m0 0 9 1 1 1 13 2 3 1 4 10v2l-9-1-19-4-3-3v-8z" fill="#141414"/>
<path transform="translate(1074,958)" d="m0 0 5 1 7 8-1 5-10 6-9 1v-15z" fill="#0C0C0C"/>
<path transform="translate(992,952)" d="m0 0 18 3 8 3v14l-9-3-10-8-5-6-2-1z" fill="#131313"/>
<path transform="translate(683,884)" d="m0 0 4 4 4 8 2 14 1 2v16l-1 1h-7l-1-4 1-12v-12l-3-14z" fill="#111"/>
<path transform="translate(551,778)" d="m0 0h1l1 94 8-12 8-10 2 1-8 11h-2l-1 6v2l-1 5-3 12h-4l-1-2z" fill="#FEFEFE"/>
<path transform="translate(962,828)" d="m0 0 5 1 12 5 8 1 1 3-1 2-9 3-4 1-9-12v-2l-3-1z" fill="#171717"/>
<path transform="translate(1075,955)" d="m0 0 6 2 4 4v2l4 1-2 6-4-5-5-6-5 1-6 4-1 15 7-1-2 2-9 1 2-16 4-9z" fill="#FEFEFE"/>
<path transform="translate(1146,721)" d="m0 0h9l2 3v20l-4 3 1-7-1-5v-7l1-5-31 4-5-1 1-3 2 1 15-1z" fill="#FEFEFE"/>
<path transform="translate(1124,786)" d="m0 0h1v76h-2l-3-8 1-4 2 3z" fill="#FEFEFE"/>
<path transform="translate(1105,985)" d="m0 0 3 1-9 6h68v2h-72l2-4z" fill="#FEFEFE"/>
<path transform="translate(979,978)" d="m0 0 4 2 4 3v2l4 1 7 5-1 4-37-1v-1l34-1-9-7z" fill="#FEFEFE"/>
<path transform="translate(968,817)" d="m0 0h9l11 11-1 3-5-3-8-6-6-3z" fill="#484848"/>
<path transform="translate(676,996)" d="m0 0 6 4 6 2h24l-1 2h-24l-8-3-4-2z" fill="#FEFEFE"/>
<path transform="translate(581,992)" d="m0 0 2 1v2l-31-1v-1z" fill="#FEFEFE"/>
<path transform="translate(1084,942)" d="m0 0h1l2 6 9 10-1 2-7-6-4-6z" fill="#FEFEFE"/>
<path transform="translate(959,950)" d="m0 0 4 2 6 11-1 2-7-11v-2h-2z" fill="#FEFEFE"/>
<path transform="translate(685,915)" d="m0 0h1v13l-3-1v-8z" fill="#FEFEFE"/>
<path transform="translate(967,828)" d="m0 0 5 1 10 5-3 1-12-5z" fill="#FEFEFE"/>
<path transform="translate(1016,866)" d="m0 0 2 1v5l-2 1-4-2 2-4z" fill="#010101"/>
<path transform="translate(601,761)" d="m0 0h4v3l-4-2z" fill="#FEFEFE"/>
<path transform="translate(590,860)" d="m0 0 3 1-2 2z" fill="#FEFEFE"/>
<path transform="translate(999,986)" d="m0 0 1 4z" fill="#FEFEFE"/>
<path transform="translate(1122,864)" d="m0 0h2v2h-2z" fill="#FEFEFE"/>
<path transform="translate(1009,832)" d="m0 0 2 1-2 1z" fill="#FEFEFE"/>
<path transform="translate(834,716)" d="m0 0" fill="#FEFEFE"/>
</svg>
