<?xml version="1.0" encoding="UTF-8"?>
<svg version="1.1" xmlns="http://www.w3.org/2000/svg" width="500" height="500">
<path d="M0 0 C30.7 0 30.7 0 36.75 5.5 C44.04425315 15.4310271 44.15090609 27.84139241 44.14526367 39.62182617 C44.14862228 40.64428436 44.1519809 41.66674255 44.15544128 42.72018433 C44.1648874 46.07779173 44.1668913 49.43534891 44.16796875 52.79296875 C44.17118608 55.14553345 44.17455051 57.49809795 44.17805481 59.85066223 C44.1840305 64.77552758 44.18589635 69.70037542 44.18530273 74.62524414 C44.18520128 80.90463198 44.19884298 87.18390633 44.21607494 93.46326733 C44.22724963 98.32174688 44.22922025 103.18019948 44.22869301 108.03869057 C44.22986529 110.35209862 44.23424436 112.66550755 44.24202538 114.97890282 C44.3502195 150.47249262 44.3502195 150.47249262 38 158 C32 162 32 162 0 162 C0 108.54 0 55.08 0 0 Z M20 30 C20 63.99 20 97.98 20 133 C23.07202104 131.38053617 23.07202104 131.38053617 23.67956352 129.12404633 C24.23254892 125.45852542 24.13821236 121.77042449 24.12939453 118.07226562 C24.13202301 116.72040413 24.13202301 116.72040413 24.13470459 115.3412323 C24.13910493 112.36288526 24.13619148 109.38459764 24.1328125 106.40625 C24.13348606 104.33646636 24.13445652 102.26668279 24.13571167 100.19689941 C24.13718618 95.85928596 24.13504199 91.52169309 24.13037109 87.18408203 C24.12467396 81.62215791 24.12795428 76.06028204 24.13394356 70.49835968 C24.13755581 66.22446326 24.13640752 61.95057829 24.13381577 57.67668152 C24.13314834 55.62574762 24.1339685 53.57481269 24.13629532 51.52388 C24.13883269 48.65847007 24.13496585 45.79313847 24.12939453 42.92773438 C24.13141876 42.07878098 24.13344299 41.22982758 24.13552856 40.35514832 C24.12247742 36.73469124 23.97907617 33.48393435 23 30 C22.01 30 21.02 30 20 30 Z " fill="#141414" transform="translate(369,149)"/>
<path d="M0 0 C0.763125 0.94875 1.52625 1.8975 2.3125 2.875 C2.94285156 3.63876953 2.94285156 3.63876953 3.5859375 4.41796875 C11.84974098 15.76191716 11.73143563 30.32730558 12.125 43.75 C12.15732727 44.84380981 12.15732727 44.84380981 12.19030762 45.9597168 C12.52793298 58.44413404 12.52793298 58.44413404 11.3125 60.875 C5.0425 60.875 -1.2275 60.875 -7.6875 60.875 C-8.42439472 49.17679633 -8.82100381 37.59366791 -8.6875 25.875 C-9.6775 25.875 -10.6675 25.875 -11.6875 25.875 C-11.6875 62.175 -11.6875 98.475 -11.6875 135.875 C-10.6975 135.875 -9.7075 135.875 -8.6875 135.875 C-8.3575 124.325 -8.0275 112.775 -7.6875 100.875 C-8.6775 100.875 -9.6675 100.875 -10.6875 100.875 C-10.6875 91.965 -10.6875 83.055 -10.6875 73.875 C-3.4275 73.875 3.8325 73.875 11.3125 73.875 C12.89142607 77.03285215 12.45082245 80.42201988 12.44189453 83.88891602 C12.44364685 84.71665527 12.44539917 85.54439453 12.44720459 86.3972168 C12.45161631 89.14113443 12.44868776 91.88498793 12.4453125 94.62890625 C12.44598567 96.5293733 12.4469558 98.42984026 12.44821167 100.33030701 C12.44968767 104.31583474 12.44753698 108.30134009 12.44287109 112.28686523 C12.43717 117.40746877 12.44045584 122.52801994 12.44644356 127.64862156 C12.45004851 131.5732615 12.44891096 135.49788892 12.44631577 139.42252922 C12.44564651 141.31126855 12.44647486 143.200009 12.44879532 145.08874702 C12.45132118 147.72268838 12.44748239 150.35654361 12.44189453 152.99047852 C12.44391876 153.77855392 12.44594299 154.56662933 12.44802856 155.37858582 C12.42676335 160.76073665 12.42676335 160.76073665 11.3125 161.875 C9.12610547 161.94758946 6.93749611 161.95873783 4.75 161.9375 C2.95369141 161.92396484 2.95369141 161.92396484 1.12109375 161.91015625 C0.19425781 161.89855469 -0.73257813 161.88695312 -1.6875 161.875 C-2.0175 160.225 -2.3475 158.575 -2.6875 156.875 C-3.00203125 157.35710937 -3.3165625 157.83921875 -3.640625 158.3359375 C-8.17114659 165.02255069 -8.17114659 165.02255069 -11.6875 165.875 C-16.0687379 165.7797557 -18.99864398 164.55131497 -22.2421875 161.5625 C-30.20448234 152.26598279 -31.69001047 139.29310927 -32.2578125 127.515625 C-32.29873016 126.67321259 -32.33964783 125.83080017 -32.38180542 124.96286011 C-32.92490152 112.15866496 -32.8373878 99.33524098 -32.81787109 86.52197266 C-32.81218469 82.76183895 -32.81556397 79.00177613 -32.82129765 75.24164486 C-32.83868496 61.92193426 -32.84243232 48.60346527 -32.28515625 35.29296875 C-32.25217438 34.44852203 -32.2191925 33.60407532 -32.18521118 32.73403931 C-31.62409894 21.44347882 -29.61219247 9.4486127 -21.6875 0.875 C-14.67756308 -4.84739749 -7.27619802 -5.75327286 0 0 Z " fill="#161616" transform="translate(130.6875,149.125)"/>
<path d="M0 0 C0 18.81 0 37.62 0 57 C1.32 57 2.64 57 4 57 C4 38.19 4 19.38 4 0 C10.27 0 16.54 0 23 0 C24.40968691 2.81937382 24.12726139 5.16965458 24.12939453 8.32299805 C24.13114685 8.97219208 24.13289917 9.62138611 24.13470459 10.29025269 C24.1391215 12.44743491 24.13618126 14.6045356 24.1328125 16.76171875 C24.13348664 18.26992305 24.1344576 19.77812725 24.13571167 21.28633118 C24.13718928 24.45985948 24.13503597 27.63335972 24.13037109 30.80688477 C24.12473704 34.83201492 24.12791162 38.85707746 24.13394356 42.88220501 C24.13760204 46.00619491 24.13638559 49.1301695 24.13381577 52.25415993 C24.13315768 53.7349937 24.13393486 55.21582896 24.13629532 56.696661 C24.14561836 64.20459799 24.05960408 71.70685518 23.67919922 79.20629883 C23.59398514 80.98113396 23.59398514 80.98113396 23.50704956 82.79182434 C22.8284427 87.08546775 21.09774638 89.84962159 18.375 93.16796875 C16.88692234 95.15066313 16.31326423 96.55037641 16 99 C17.86245982 101.54862922 20.15616877 102.7251791 23 104 C23 105.65 23 107.3 23 109 C22.071875 109.433125 21.14375 109.86625 20.1875 110.3125 C17.40635839 111.78486909 16.01812918 112.71863658 14 115 C13.195625 115.763125 12.39125 116.52625 11.5625 117.3125 C9.64083511 119.32790465 8.2369193 121.01994079 6.75 123.3125 C6.1725 124.199375 5.595 125.08625 5 126 C4.67 126 4.34 126 4 126 C4 115.77 4 105.54 4 95 C2.68 95 1.36 95 0 95 C0 117.11 0 139.22 0 162 C-6.6 162 -13.2 162 -20 162 C-20 108.54 -20 55.08 -20 0 C-3 -1 -3 -1 0 0 Z " fill="#131313" transform="translate(168,149)"/>
<path d="M0 0 C7.73179613 7.44624684 10.32375102 19.8573955 10.92370605 30.17468262 C10.97917668 33.33066914 10.97546188 36.48040261 10.9453125 39.63671875 C10.9424826 40.77534866 10.93965271 41.91397858 10.93673706 43.08711243 C10.92564393 46.68318707 10.90055997 50.27900209 10.875 53.875 C10.86495615 56.3300745 10.85583277 58.78515295 10.84765625 61.24023438 C10.82574032 67.22274312 10.79237281 73.205103 10.75 79.1875 C6.55143083 79.27506739 4.0086805 79.23969791 0.4375 76.9375 C-0.23925781 76.51984375 -0.91601562 76.1021875 -1.61328125 75.671875 C-3.58195105 73.88644654 -3.6582306 72.71642905 -4.25 70.1875 C-5.735 69.1975 -5.735 69.1975 -7.25 68.1875 C-7.25 67.5275 -7.25 66.8675 -7.25 66.1875 C-5.27 65.1975 -5.27 65.1975 -3.25 64.1875 C-4.9 63.5275 -6.55 62.8675 -8.25 62.1875 C-8.58 50.3075 -8.91 38.4275 -9.25 26.1875 C-9.91 26.5175 -10.57 26.8475 -11.25 27.1875 C-11.27505615 28.1161084 -11.3001123 29.0447168 -11.32592773 30.00146484 C-11.42097932 33.44185804 -11.52021707 36.88207713 -11.62231445 40.32226562 C-11.66566589 41.81212641 -11.70734084 43.30203695 -11.74731445 44.79199219 C-11.80501215 46.93179327 -11.86870755 49.07134385 -11.93359375 51.2109375 C-11.97025146 52.49919434 -12.00690918 53.78745117 -12.04467773 55.11474609 C-12.25 58.1875 -12.25 58.1875 -13.25 60.1875 C-13.86230469 60.32027344 -14.47460938 60.45304687 -15.10546875 60.58984375 C-17.87573504 61.36188517 -18.7518062 62.54173142 -20.5625 64.75 C-21.15933594 65.46285156 -21.75617188 66.17570312 -22.37109375 66.91015625 C-23.30115234 68.03744141 -23.30115234 68.03744141 -24.25 69.1875 C-25.5359304 70.69242053 -26.827351 72.1926723 -28.125 73.6875 C-28.69992188 74.3578125 -29.27484375 75.028125 -29.8671875 75.71875 C-30.32351562 76.2034375 -30.77984375 76.688125 -31.25 77.1875 C-31.58 77.1875 -31.91 77.1875 -32.25 77.1875 C-32.32683832 70.46557035 -32.37892623 63.74375629 -32.41479492 57.02148438 C-32.42976739 54.74051684 -32.45015257 52.45957753 -32.47631836 50.17871094 C-32.89729762 12.50519398 -32.89729762 12.50519398 -20.8046875 -0.4296875 C-14.63027161 -5.92150465 -6.57257048 -3.665472 0 0 Z " fill="#181818" transform="translate(229.25,148.8125)"/>
<path d="M0 0 C7.58507896 6.15092538 9.48672143 13.63478574 10.73828125 23.02148438 C11.58242775 32.19320306 11.19890077 41.49820769 10.984375 50.6953125 C8.00514907 50.72215237 5.02616205 50.74207287 2.046875 50.7578125 C0.77166992 50.77038086 0.77166992 50.77038086 -0.52929688 50.78320312 C-1.33818359 50.78642578 -2.14707031 50.78964844 -2.98046875 50.79296875 C-3.7293335 50.79820557 -4.47819824 50.80344238 -5.24975586 50.80883789 C-7.015625 50.6953125 -7.015625 50.6953125 -8.015625 49.6953125 C-8.17277154 48.06274492 -8.26647914 46.42395912 -8.33203125 44.78515625 C-8.37392578 43.79580078 -8.41582031 42.80644531 -8.45898438 41.78710938 C-8.49830078 40.74619141 -8.53761719 39.70527344 -8.578125 38.6328125 C-8.62130859 37.58802734 -8.66449219 36.54324219 -8.70898438 35.46679688 C-8.81543725 32.87644366 -8.9174526 30.28599064 -9.015625 27.6953125 C-9.675625 27.3653125 -10.335625 27.0353125 -11.015625 26.6953125 C-12.28048758 43.5895788 -12.28048758 43.5895788 -6.015625 58.6953125 C-4.90878031 60.29453295 -3.80201305 61.89380776 -2.69677734 63.49414062 C-1.91482311 64.62036161 -1.12744634 65.74283858 -0.33447266 66.86132812 C7.984375 78.65424996 7.984375 78.65424996 7.984375 85.6953125 C4.42329542 85.12522739 2.89362303 83.89155865 0.484375 81.2578125 C-2.45003991 78.06330172 -4.86000782 75.90903574 -9.30566406 75.46826172 C-10.12260742 75.47873535 -10.93955078 75.48920898 -11.78125 75.5 C-12.67070312 75.50644531 -13.56015625 75.51289063 -14.4765625 75.51953125 C-15.39695312 75.53628906 -16.31734375 75.55304688 -17.265625 75.5703125 C-18.66941406 75.58384766 -18.66941406 75.58384766 -20.1015625 75.59765625 C-22.40651157 75.62117614 -24.7109366 75.65404397 -27.015625 75.6953125 C-27.50159653 73.71780572 -27.97901257 71.738196 -28.453125 69.7578125 C-28.71996094 68.65566406 -28.98679688 67.55351562 -29.26171875 66.41796875 C-32.9102163 48.40233056 -34.67739984 20.94532918 -24.8046875 4.703125 C-21.68394402 0.54788092 -18.40041442 -1.64186598 -13.37890625 -2.9921875 C-8.39490585 -3.65122888 -4.22288152 -2.73341556 0 0 Z " fill="#171717" transform="translate(275.015625,148.3046875)"/>
<path d="M0 0 C1.29349365 0.00523682 2.5869873 0.01047363 3.91967773 0.01586914 C5.17594971 0.0183667 6.43222168 0.02086426 7.7265625 0.0234375 C9.33587646 0.0325415 10.94519043 0.04164551 12.60327148 0.05102539 C17.69764648 0.07165039 22.79202148 0.09227539 28.04077148 0.11352539 C28.04077148 11.33352539 28.04077148 22.55352539 28.04077148 34.11352539 C24.08077148 34.11352539 20.12077148 34.11352539 16.04077148 34.11352539 C16.37077148 43.35352539 16.70077148 52.59352539 17.04077148 62.11352539 C20.01077148 62.11352539 22.98077148 62.11352539 26.04077148 62.11352539 C28.08826125 66.20850493 28.28787373 67.89731358 28.27124023 72.34008789 C28.26930664 73.53633789 28.26737305 74.73258789 28.26538086 75.96508789 C28.24701172 77.83293945 28.24701172 77.83293945 28.22827148 79.73852539 C28.22762695 80.99149414 28.22698242 82.24446289 28.22631836 83.53540039 C28.18113664 92.83279509 28.18113664 92.83279509 27.04077148 95.11352539 C23.41077148 95.11352539 19.78077148 95.11352539 16.04077148 95.11352539 C16.04077148 103.03352539 16.04077148 110.95352539 16.04077148 119.11352539 C13.73077148 117.13352539 11.42077148 115.15352539 9.04077148 113.11352539 C6.89274038 111.72802138 6.89274038 111.72802138 4.91577148 110.86352539 C4.29444336 110.56961914 3.67311523 110.27571289 3.03295898 109.97290039 C0.72082626 108.9755098 -1.62124646 108.04871821 -3.95922852 107.11352539 C-3.95922852 102.49352539 -3.95922852 97.87352539 -3.95922852 93.11352539 C-2.10555664 92.55922852 -0.25188477 92.00493164 1.65795898 91.43383789 C4.0773305 90.70239999 6.49659588 89.97061099 8.91577148 89.23852539 C10.75075195 88.69131836 10.75075195 88.69131836 12.62280273 88.13305664 C13.7894043 87.77856445 14.95600586 87.42407227 16.15795898 87.05883789 C17.23674316 86.73415527 18.31552734 86.40947266 19.42700195 86.07495117 C22.15498188 85.27900155 22.15498188 85.27900155 24.04077148 83.11352539 C24.43841411 81.12531226 24.77852497 79.124082 25.04077148 77.11352539 C24.54577148 77.27852539 24.05077148 77.44352539 23.54077148 77.61352539 C20.00633059 78.32041357 16.64386447 78.17357694 13.04077148 78.11352539 C14.21639648 76.96883789 14.21639648 76.96883789 15.41577148 75.80102539 C18.11334866 73.20460734 18.11334866 73.20460734 20.04077148 70.11352539 C12.12077148 70.11352539 4.20077148 70.11352539 -3.95922852 70.11352539 C-3.9817815 61.13431433 -4.00014474 52.15512194 -4.01104069 43.17588902 C-4.01626903 39.00689711 -4.02336578 34.83792552 -4.03466797 30.66894531 C-4.0454986 26.64894853 -4.05150572 22.62897134 -4.05410576 18.60896111 C-4.05595969 17.07189564 -4.0595797 15.5348313 -4.06495857 13.99777412 C-4.07217135 11.85217052 -4.07321936 9.70664884 -4.07275391 7.56103516 C-4.07497452 6.33747818 -4.07719513 5.1139212 -4.07948303 3.85328674 C-3.91217998 0.04161747 -3.84232323 0.1474037 0 0 Z " fill="#030303" transform="translate(335.959228515625,148.886474609375)"/>
<path d="M0 0 C5.82071622 -0.02464638 11.64140234 -0.0428343 17.4621582 -0.05493164 C19.44393441 -0.05997267 21.42570689 -0.06680538 23.4074707 -0.07543945 C26.24952109 -0.08751515 29.09152247 -0.09323045 31.93359375 -0.09765625 C32.82525742 -0.10281754 33.71692108 -0.10797882 34.63560486 -0.11329651 C36.75740601 -0.11349177 38.8791078 -0.0621003 41 0 C42.67673649 1.67673649 42.12787817 3.72855076 42.13894653 5.96655273 C42.1369223 6.65821533 42.13489807 7.34987793 42.1328125 8.0625 C42.13376923 8.76898682 42.13472595 9.47547363 42.13571167 10.20336914 C42.13639333 11.69970793 42.13454005 13.19604967 42.13037109 14.69238281 C42.12502257 16.99030157 42.13031651 19.28802486 42.13671875 21.5859375 C42.13605797 23.03645877 42.1347768 24.48697991 42.1328125 25.9375 C42.13483673 26.6291626 42.13686096 27.3208252 42.13894653 28.03344727 C42.11495224 32.88504776 42.11495224 32.88504776 41 34 C39.31391034 34.07205511 37.62499341 34.08386068 35.9375 34.0625 C35.01839844 34.05347656 34.09929687 34.04445312 33.15234375 34.03515625 C32.44207031 34.02355469 31.73179687 34.01195312 31 34 C31.00785522 35.67340454 31.00785522 35.67340454 31.01586914 37.38061523 C31.03391775 41.50479333 31.04543149 45.62896791 31.05493164 49.75317383 C31.05997218 51.54094021 31.06680454 53.32870245 31.07543945 55.11645508 C31.0875173 57.68051168 31.09323094 60.24451397 31.09765625 62.80859375 C31.10281754 63.6127623 31.10797882 64.41693085 31.11329651 65.24546814 C31.11349215 67.16401715 31.06201983 69.08245368 31 71 C30.67 71.33 30.34 71.66 30 72 C29.95875 73.11375 29.9175 74.2275 29.875 75.375 C29.58625 76.57125 29.2975 77.7675 29 79 C25.8125 80.8125 25.8125 80.8125 22 82 C20.453125 82.5878125 20.453125 82.5878125 18.875 83.1875 C16 84 16 84 11 84 C11 67.5 11 51 11 34 C7.7 34 4.4 34 1 34 C0 33 0 33 -0.11352539 29.85717773 C-0.11336633 28.46597303 -0.10767506 27.07476239 -0.09765625 25.68359375 C-0.0962413 24.95253922 -0.09482635 24.22148468 -0.09336853 23.46827698 C-0.08775408 21.12464368 -0.07519922 18.78110461 -0.0625 16.4375 C-0.05748686 14.85221492 -0.05292363 13.26692834 -0.04882812 11.68164062 C-0.03777997 7.7877239 -0.02050572 3.89387795 0 0 Z " fill="#020202" transform="translate(288,149)"/>
<path d="M0 0 C1.29349365 0.00523682 2.5869873 0.01047363 3.91967773 0.01586914 C5.17594971 0.0183667 6.43222168 0.02086426 7.7265625 0.0234375 C9.33587646 0.0325415 10.94519043 0.04164551 12.60327148 0.05102539 C17.69764648 0.07165039 22.79202148 0.09227539 28.04077148 0.11352539 C28.04077148 11.33352539 28.04077148 22.55352539 28.04077148 34.11352539 C24.08077148 34.11352539 20.12077148 34.11352539 16.04077148 34.11352539 C16.37077148 43.35352539 16.70077148 52.59352539 17.04077148 62.11352539 C20.01077148 62.11352539 22.98077148 62.11352539 26.04077148 62.11352539 C28.08826125 66.20850493 28.28787373 67.89731358 28.27124023 72.34008789 C28.26930664 73.53633789 28.26737305 74.73258789 28.26538086 75.96508789 C28.24701172 77.83293945 28.24701172 77.83293945 28.22827148 79.73852539 C28.22762695 80.99149414 28.22698242 82.24446289 28.22631836 83.53540039 C28.18113664 92.83279509 28.18113664 92.83279509 27.04077148 95.11352539 C23.41077148 95.11352539 19.78077148 95.11352539 16.04077148 95.11352539 C16.04077148 103.03352539 16.04077148 110.95352539 16.04077148 119.11352539 C13.73077148 117.13352539 11.42077148 115.15352539 9.04077148 113.11352539 C6.89274038 111.72802138 6.89274038 111.72802138 4.91577148 110.86352539 C4.29444336 110.56961914 3.67311523 110.27571289 3.03295898 109.97290039 C0.72082626 108.9755098 -1.62124646 108.04871821 -3.95922852 107.11352539 C-3.95922852 102.49352539 -3.95922852 97.87352539 -3.95922852 93.11352539 C-2.10555664 92.55922852 -0.25188477 92.00493164 1.65795898 91.43383789 C4.0773305 90.70239999 6.49659588 89.97061099 8.91577148 89.23852539 C10.75075195 88.69131836 10.75075195 88.69131836 12.62280273 88.13305664 C13.7894043 87.77856445 14.95600586 87.42407227 16.15795898 87.05883789 C17.23674316 86.73415527 18.31552734 86.40947266 19.42700195 86.07495117 C22.15498188 85.27900155 22.15498188 85.27900155 24.04077148 83.11352539 C24.43841411 81.12531226 24.77852497 79.124082 25.04077148 77.11352539 C23.72077148 76.78352539 22.40077148 76.45352539 21.04077148 76.11352539 C22.69077148 76.11352539 24.34077148 76.11352539 26.04077148 76.11352539 C26.04077148 72.15352539 26.04077148 68.19352539 26.04077148 64.11352539 C22.41077148 64.11352539 18.78077148 64.11352539 15.04077148 64.11352539 C15.04077148 53.88352539 15.04077148 43.65352539 15.04077148 33.11352539 C19.00077148 33.11352539 22.96077148 33.11352539 27.04077148 33.11352539 C27.04077148 22.88352539 27.04077148 12.65352539 27.04077148 2.11352539 C17.47077148 2.11352539 7.90077148 2.11352539 -1.95922852 2.11352539 C-1.95922852 24.22352539 -1.95922852 46.33352539 -1.95922852 69.11352539 C2.99077148 69.11352539 7.94077148 69.11352539 13.04077148 69.11352539 C13.04077148 69.44352539 13.04077148 69.77352539 13.04077148 70.11352539 C7.43077148 70.11352539 1.82077148 70.11352539 -3.95922852 70.11352539 C-3.9817815 61.13431433 -4.00014474 52.15512194 -4.01104069 43.17588902 C-4.01626903 39.00689711 -4.02336578 34.83792552 -4.03466797 30.66894531 C-4.0454986 26.64894853 -4.05150572 22.62897134 -4.05410576 18.60896111 C-4.05595969 17.07189564 -4.0595797 15.5348313 -4.06495857 13.99777412 C-4.07217135 11.85217052 -4.07321936 9.70664884 -4.07275391 7.56103516 C-4.07497452 6.33747818 -4.07719513 5.1139212 -4.07948303 3.85328674 C-3.91217998 0.04161747 -3.84232323 0.1474037 0 0 Z " fill="#1A1A1A" transform="translate(335.959228515625,148.886474609375)"/>
<path d="M0 0 C1.23556641 0.01740234 1.23556641 0.01740234 2.49609375 0.03515625 C3.32238281 0.04417969 4.14867187 0.05320312 5 0.0625 C5.63808594 0.07410156 6.27617187 0.08570313 6.93359375 0.09765625 C8.41484419 3.06015712 8.06350059 5.7367852 8.06640625 9.0390625 C8.06784134 10.06337624 8.06784134 10.06337624 8.06930542 11.10838318 C8.06998598 12.5516672 8.06814035 13.99495428 8.06396484 15.43823242 C8.05860657 17.65485453 8.06391818 19.87127477 8.0703125 22.08789062 C8.06965186 23.4882817 8.06837098 24.88867265 8.06640625 26.2890625 C8.06527832 27.56982666 8.06415039 28.85059082 8.06298828 30.17016602 C7.93359375 33.09765625 7.93359375 33.09765625 6.93359375 34.09765625 C5.22587017 34.18479456 3.51460726 34.20465632 1.8046875 34.1953125 C0.25297852 34.19047852 0.25297852 34.19047852 -1.33007812 34.18554688 C-2.41869141 34.17716797 -3.50730469 34.16878906 -4.62890625 34.16015625 C-6.26762695 34.15338867 -6.26762695 34.15338867 -7.93945312 34.14648438 C-10.6484912 34.13465451 -13.35742224 34.11817168 -16.06640625 34.09765625 C-15.29554688 33.33195312 -14.5246875 32.56625 -13.73046875 31.77734375 C-6.97274918 24.97998946 -2.94648122 20.00045222 -2.9152832 10.30249023 C-2.94071013 8.2780791 -2.99918967 6.25416787 -3.05859375 4.23046875 C-3.06246094 2.67972656 -3.06246094 2.67972656 -3.06640625 1.09765625 C-2.06640625 0.09765625 -2.06640625 0.09765625 0 0 Z " fill="#111111" transform="translate(358.06640625,276.90234375)"/>
<path d="M0 0 C1.29349365 0.00523682 2.5869873 0.01047363 3.91967773 0.01586914 C5.17594971 0.0183667 6.43222168 0.02086426 7.7265625 0.0234375 C9.33587646 0.0325415 10.94519043 0.04164551 12.60327148 0.05102539 C17.69764648 0.07165039 22.79202148 0.09227539 28.04077148 0.11352539 C28.04077148 11.33352539 28.04077148 22.55352539 28.04077148 34.11352539 C24.08077148 34.11352539 20.12077148 34.11352539 16.04077148 34.11352539 C16.37077148 43.35352539 16.70077148 52.59352539 17.04077148 62.11352539 C20.01077148 62.11352539 22.98077148 62.11352539 26.04077148 62.11352539 C28.08826125 66.20850493 28.28787373 67.89731358 28.27124023 72.34008789 C28.26930664 73.53633789 28.26737305 74.73258789 28.26538086 75.96508789 C28.24701172 77.83293945 28.24701172 77.83293945 28.22827148 79.73852539 C28.22762695 80.99149414 28.22698242 82.24446289 28.22631836 83.53540039 C28.18113664 92.83279509 28.18113664 92.83279509 27.04077148 95.11352539 C23.41077148 95.11352539 19.78077148 95.11352539 16.04077148 95.11352539 C16.04077148 103.03352539 16.04077148 110.95352539 16.04077148 119.11352539 C15.05077148 118.12352539 14.06077148 117.13352539 13.04077148 116.11352539 C13.70077148 116.11352539 14.36077148 116.11352539 15.04077148 116.11352539 C15.04077148 108.85352539 15.04077148 101.59352539 15.04077148 94.11352539 C18.67077148 94.11352539 22.30077148 94.11352539 26.04077148 94.11352539 C25.71077148 91.14352539 25.38077148 88.17352539 25.04077148 85.11352539 C24.05077148 85.11352539 23.06077148 85.11352539 22.04077148 85.11352539 C23.03077148 84.12352539 23.03077148 84.12352539 24.04077148 83.11352539 C24.43841411 81.12531226 24.77852497 79.124082 25.04077148 77.11352539 C23.72077148 76.78352539 22.40077148 76.45352539 21.04077148 76.11352539 C22.69077148 76.11352539 24.34077148 76.11352539 26.04077148 76.11352539 C26.04077148 72.15352539 26.04077148 68.19352539 26.04077148 64.11352539 C22.41077148 64.11352539 18.78077148 64.11352539 15.04077148 64.11352539 C15.04077148 53.88352539 15.04077148 43.65352539 15.04077148 33.11352539 C19.00077148 33.11352539 22.96077148 33.11352539 27.04077148 33.11352539 C27.04077148 22.88352539 27.04077148 12.65352539 27.04077148 2.11352539 C17.47077148 2.11352539 7.90077148 2.11352539 -1.95922852 2.11352539 C-1.95922852 24.22352539 -1.95922852 46.33352539 -1.95922852 69.11352539 C2.99077148 69.11352539 7.94077148 69.11352539 13.04077148 69.11352539 C13.04077148 69.44352539 13.04077148 69.77352539 13.04077148 70.11352539 C7.43077148 70.11352539 1.82077148 70.11352539 -3.95922852 70.11352539 C-3.9817815 61.13431433 -4.00014474 52.15512194 -4.01104069 43.17588902 C-4.01626903 39.00689711 -4.02336578 34.83792552 -4.03466797 30.66894531 C-4.0454986 26.64894853 -4.05150572 22.62897134 -4.05410576 18.60896111 C-4.05595969 17.07189564 -4.0595797 15.5348313 -4.06495857 13.99777412 C-4.07217135 11.85217052 -4.07321936 9.70664884 -4.07275391 7.56103516 C-4.07497452 6.33747818 -4.07719513 5.1139212 -4.07948303 3.85328674 C-3.91217998 0.04161747 -3.84232323 0.1474037 0 0 Z " fill="#8D8D8D" transform="translate(335.959228515625,148.886474609375)"/>
<path d="M0 0 C5.82071622 -0.02464638 11.64140234 -0.0428343 17.4621582 -0.05493164 C19.44393441 -0.05997267 21.42570689 -0.06680538 23.4074707 -0.07543945 C26.24952109 -0.08751515 29.09152247 -0.09323045 31.93359375 -0.09765625 C32.82525742 -0.10281754 33.71692108 -0.10797882 34.63560486 -0.11329651 C36.75740601 -0.11349177 38.8791078 -0.0621003 41 0 C42.67673649 1.67673649 42.12787817 3.72855076 42.13894653 5.96655273 C42.1369223 6.65821533 42.13489807 7.34987793 42.1328125 8.0625 C42.13376923 8.76898682 42.13472595 9.47547363 42.13571167 10.20336914 C42.13639333 11.69970793 42.13454005 13.19604967 42.13037109 14.69238281 C42.12502257 16.99030157 42.13031651 19.28802486 42.13671875 21.5859375 C42.13605797 23.03645877 42.1347768 24.48697991 42.1328125 25.9375 C42.13483673 26.6291626 42.13686096 27.3208252 42.13894653 28.03344727 C42.11495224 32.88504776 42.11495224 32.88504776 41 34 C37.7 34 34.4 34 31 34 C31 46.21 31 58.42 31 71 C30.67 71 30.34 71 30 71 C30 58.13 30 45.26 30 32 C33.3 32 36.6 32 40 32 C40 22.1 40 12.2 40 2 C27.46 2 14.92 2 2 2 C2 11.9 2 21.8 2 32 C5.3 32 8.6 32 12 32 C12 48.83 12 65.66 12 83 C15.465 82.505 15.465 82.505 19 82 C16 84 16 84 11 84 C11 67.5 11 51 11 34 C7.7 34 4.4 34 1 34 C0 33 0 33 -0.11352539 29.85717773 C-0.11336633 28.46597303 -0.10767506 27.07476239 -0.09765625 25.68359375 C-0.0962413 24.95253922 -0.09482635 24.22148468 -0.09336853 23.46827698 C-0.08775408 21.12464368 -0.07519922 18.78110461 -0.0625 16.4375 C-0.05748686 14.85221492 -0.05292363 13.26692834 -0.04882812 11.68164062 C-0.03777997 7.7877239 -0.02050572 3.89387795 0 0 Z " fill="#949494" transform="translate(288,149)"/>
<path d="M0 0 C-2.12251367 5.89698372 -5.20782024 9.5728859 -10.8125 12.4375 C-16.15441953 13.38019168 -20.6289841 13.52479474 -25.3203125 10.5078125 C-28.90357618 7.51533781 -31.00903294 5.61314314 -32 1 C-9.19872014 -0.19388403 -9.19872014 -0.19388403 0 0 Z " fill="#303030" transform="translate(283,302)"/>
<path d="M0 0 C0.66 0 1.32 0 2 0 C2.66 4.62 3.32 9.24 4 14 C5.32 14.33 6.64 14.66 8 15 C6.72173873 19.99683952 5.04251354 22.76598917 1 26 C-4.84282713 28.58432739 -9.10789469 27.73690179 -15 26 C-13.41987986 22.50116255 -12.39126684 21.69563342 -9 20 C-8.30199696 18.68280071 -7.63940252 17.34662045 -7 16 C-6.17643829 14.74354047 -5.34279672 13.49363907 -4.5 12.25 C-1.95006892 8.24833825 -0.91112383 4.63844857 0 0 Z " fill="#343434" transform="translate(226,287)"/>
<path d="M0 0 C3.85045216 0.55006459 5.59599127 1.97560192 8 5 C11.10111246 10.71396467 11.83423354 16.58281894 11 23 C9.5 26.625 9.5 26.625 8 29 C5.4636387 27.98545548 4.20648539 27.3146444 2.6875 25 C2.460625 24.34 2.23375 23.68 2 23 C2.33 22.34 2.66 21.68 3 21 C2.9642957 16.5369626 2.40928214 12.80282265 0.375 8.8125 C-1.29813368 5.39018112 -0.94804 3.6197891 0 0 Z " fill="#323232" transform="translate(336,271)"/>
<path d="M0 0 C0.99 0.66 1.98 1.32 3 2 C3.69541452 6.28838953 2.25216877 8.4485031 0 12 C-0.71143088 13.98451771 -1.38991336 15.98202112 -2 18 C-3.98 17.67 -5.96 17.34 -8 17 C-7.05887977 10.73412055 -6.06466923 5.95381562 -2 1 C-1.34 0.67 -0.68 0.34 0 0 Z " fill="#434343" transform="translate(185,271)"/>
<path d="M0 0 C2.97 0 5.94 0 9 0 C10.48125044 2.96250087 10.12990684 5.63912895 10.1328125 8.94140625 C10.13424759 9.96571999 10.13424759 9.96571999 10.13571167 11.01072693 C10.13639223 12.45401095 10.1345466 13.89729803 10.13037109 15.34057617 C10.12501282 17.55719828 10.13032443 19.77361852 10.13671875 21.99023438 C10.13605811 23.39062545 10.13477723 24.7910164 10.1328125 26.19140625 C10.13168457 27.47217041 10.13055664 28.75293457 10.12939453 30.07250977 C10 33 10 33 9 34 C7.29227642 34.08713831 5.58101351 34.10700007 3.87109375 34.09765625 C2.31938477 34.09282227 2.31938477 34.09282227 0.73632812 34.08789062 C-0.35228516 34.07951172 -1.44089844 34.07113281 -2.5625 34.0625 C-4.2012207 34.05573242 -4.2012207 34.05573242 -5.87304688 34.04882812 C-8.58208495 34.03699826 -11.29101599 34.02051543 -14 34 C-13.34 33.01 -12.68 32.02 -12 31 C-11.34 31 -10.68 31 -10 31 C-10 31.66 -10 32.32 -10 33 C-4.06 33 1.88 33 8 33 C8 22.77 8 12.54 8 2 C3.545 2.495 3.545 2.495 -1 3 C-0.67 2.01 -0.34 1.02 0 0 Z " fill="#A4A4A4" transform="translate(356,277)"/>
<path d="M0 0 C4.11078125 0.65398793 5.32093226 3.2206265 7.75 6.4375 C8.41 6.7675 9.07 7.0975 9.75 7.4375 C9.75 9.7475 9.75 12.0575 9.75 14.4375 C4.98403576 13.54519392 1.97058608 10.96635377 -1.25 7.4375 C-2.6875 4.0625 -2.6875 4.0625 -3.25 1.4375 C-2.25 0.4375 -2.25 0.4375 0 0 Z " fill="#444444" transform="translate(181.25,290.5625)"/>
<path d="M0 0 C2.65049834 2.65049834 5.16635075 5.2518415 7.625 8.0625 C8.51058594 9.06990234 8.51058594 9.06990234 9.4140625 10.09765625 C11 12 11 12 13 15 C8.71 15 4.42 15 0 15 C0 10.05 0 5.1 0 0 Z " fill="#565656" transform="translate(299,296)"/>
<path d="M0 0 C0 2.97 0 5.94 0 9 C-3.1875 10.25 -3.1875 10.25 -7 11 C-9.9375 9.375 -9.9375 9.375 -12 7 C-12 5.68 -12 4.36 -12 3 C-10.37604003 2.49663233 -8.75079459 1.99741024 -7.125 1.5 C-6.22007812 1.2215625 -5.31515625 0.943125 -4.3828125 0.65625 C-2 0 -2 0 0 0 Z " fill="#333333" transform="translate(319,248)"/>
<path d="M0 0 C3.625 -0.1875 3.625 -0.1875 7 0 C5.83457164 4.95307054 2.8657115 6.97441595 -1.02734375 9.86328125 C-3 11 -3 11 -6 11 C-6.33 9.68 -6.66 8.36 -7 7 C-6.21625 6.401875 -5.4325 5.80375 -4.625 5.1875 C-1.85425677 3.08914751 -1.85425677 3.08914751 0 0 Z " fill="#404040" transform="translate(209,293)"/>
<path d="M0 0 C0.515625 0.70125 1.03125 1.4025 1.5625 2.125 C4.03990236 5.04706432 6.6511223 7.35427616 9.609375 9.765625 C10.06828125 10.17296875 10.5271875 10.5803125 11 11 C11 11.33 11 11.66 11 12 C7.37 12 3.74 12 0 12 C0 8.04 0 4.08 0 0 Z " fill="#555555" transform="translate(172,299)"/>
<path d="M0 0 C0.495 0.45375 0.99 0.9075 1.5 1.375 C1.17 2.035 0.84 2.695 0.5 3.375 C-0.510625 2.715 -1.52125 2.055 -2.5625 1.375 C-6.43522212 -0.77910447 -9.02529409 -1.48853974 -13.5 -0.625 C-15.75692967 1.01867891 -17.71961013 2.78241403 -19.703125 4.74609375 C-21.5 6.375 -21.5 6.375 -24.5 7.375 C-24.5 8.365 -24.5 9.355 -24.5 10.375 C-25.16 10.375 -25.82 10.375 -26.5 10.375 C-24.82073269 5.1845374 -22.29664131 0.90141109 -17.453125 -1.7421875 C-10.9571385 -4.27338224 -5.96813877 -3.8792902 0 0 Z " fill="#888888" transform="translate(130.5,148.625)"/>
<path d="M0 0 C0.99438971 0.94252811 1.97953494 1.89547303 2.9375 2.875 C2.6075 3.535 2.2775 4.195 1.9375 4.875 C1.45539063 4.45347656 0.97328125 4.03195313 0.4765625 3.59765625 C-0.47089844 2.77587891 -0.47089844 2.77587891 -1.4375 1.9375 C-2.06398438 1.39222656 -2.69046875 0.84695312 -3.3359375 0.28515625 C-6.66919375 -2.4372544 -9.48159863 -2.56534767 -13.67578125 -2.55859375 C-17.24559766 -1.91006737 -19.09818808 -0.00080375 -21.5546875 2.5625 C-23.0625 3.875 -23.0625 3.875 -26.0625 3.875 C-24.55298817 -0.35163314 -21.8773346 -1.95578032 -18.0625 -4.125 C-11.6840296 -6.53847529 -4.97442198 -4.2681146 0 0 Z " fill="#B4B4B4" transform="translate(277.0625,150.125)"/>
<path d="M0 0 C3.95820859 0.56545837 6.6659053 1.80902348 10 4 C9.34 5.32 8.68 6.64 8 8 C2.25 7.125 2.25 7.125 0 6 C0 4.02 0 2.04 0 0 Z " fill="#4B4B4B" transform="translate(308,278)"/>
<path d="M0 0 C2.97 0.33 5.94 0.66 9 1 C9.66 2.65 10.32 4.3 11 6 C3.54062751 5.38857603 3.54062751 5.38857603 1 3.5625 C0 2 0 2 0 0 Z " fill="#5D5D5D" transform="translate(306,289)"/>
<path d="M0 0 C0.33 0 0.66 0 1 0 C1.01458252 0.71655762 1.02916504 1.43311523 1.04418945 2.17138672 C1.11849 5.40647983 1.21520861 8.64052019 1.3125 11.875 C1.33505859 13.00292969 1.35761719 14.13085938 1.38085938 15.29296875 C1.41630859 16.36933594 1.45175781 17.44570313 1.48828125 18.5546875 C1.51446533 19.54968262 1.54064941 20.54467773 1.56762695 21.56982422 C1.78165161 22.77276123 1.78165161 22.77276123 2 24 C2.99 24.66 3.98 25.32 5 26 C3.69593116 28.01920337 2.36176581 30.01924973 1 32 C0.67 32 0.34 32 0 32 C0 21.44 0 10.88 0 0 Z " fill="#6D6D6D" transform="translate(172,243)"/>
<path d="M0 0 C0.66 1.65 1.32 3.3 2 5 C-0.3125 6.5625 -0.3125 6.5625 -3 8 C-3.99 7.67 -4.98 7.34 -6 7 C-6.1875 4.625 -6.1875 4.625 -6 2 C-3 0 -3 0 0 0 Z " fill="#393939" transform="translate(338,299)"/>
<path d="M0 0 C4.79124503 4.79124503 4.69739522 5.64529961 5 12 C4.67 12.99 4.34 13.98 4 15 C3.01 14.67 2.02 14.34 1 14 C0.67 9.38 0.34 4.76 0 0 Z " fill="#6E6E6E" transform="translate(213,276)"/>
<path d="M0 0 C1.47968324 0.14049518 2.95874516 0.28754826 4.4375 0.4375 C5.67306641 0.55931641 5.67306641 0.55931641 6.93359375 0.68359375 C9 1 9 1 10 2 C10.04063832 3.66617115 10.042721 5.33388095 10 7 C5.61308455 6.49381745 3.15608721 3.86917019 0 1 C0 0.67 0 0.34 0 0 Z " fill="#727272" transform="translate(309,297)"/>
<path d="M0 0 C0.66 0 1.32 0 2 0 C2 0.66 2 1.32 2 2 C8.27 2 14.54 2 21 2 C21 2.33 21 2.66 21 3 C13.41 3 5.82 3 -2 3 C-1.34 2.01 -0.68 1.02 0 0 Z " fill="#8E8E8E" transform="translate(344,308)"/>
<path d="M0 0 C0.66 0 1.32 0 2 0 C2.95261487 4.76307437 3.08333357 9.1666528 3 14 C2.67 14 2.34 14 2 14 C1.67 11.69 1.34 9.38 1 7 C0.01 7.495 0.01 7.495 -1 8 C-0.67 5.36 -0.34 2.72 0 0 Z " fill="#8E8E8E" transform="translate(226,287)"/>
<path d="M0 0 C3.4375 0.8125 3.4375 0.8125 7 2 C7.33 2.99 7.66 3.98 8 5 C6.68 5.33 5.36 5.66 4 6 C0 1.125 0 1.125 0 0 Z " fill="#666666" transform="translate(300,258)"/>
<path d="M0 0 C2.125 0.375 2.125 0.375 4 1 C1.6875 3.5 1.6875 3.5 -1 6 C-1.99 6 -2.98 6 -4 6 C-2.84826645 3.53199953 -1.95216435 1.95216435 0 0 Z " fill="#686868" transform="translate(255,148)"/>
<path d="M0 0 C0 2.97 0 5.94 0 9 C-0.66 9 -1.32 9 -2 9 C-2 6.69 -2 4.38 -2 2 C-3.32 1.67 -4.64 1.34 -6 1 C-3.92446352 0.4465236 -2.15634036 0 0 0 Z " fill="#9B9B9B" transform="translate(319,248)"/>
<path d="M0 0 C0.66 0 1.32 0 2 0 C2.75 2.25 2.75 2.25 3 5 C1.0625 7.3125 1.0625 7.3125 -1 9 C-1.66 8.67 -2.32 8.34 -3 8 C-2.34 7.34 -1.68 6.68 -1 6 C-0.60235737 4.01178687 -0.26224651 2.01055661 0 0 Z " fill="#8C8C8C" transform="translate(361,226)"/>
<path d="M0 0 C1.98 0.495 1.98 0.495 4 1 C2.68 2.32 1.36 3.64 0 5 C0.99 5.33 1.98 5.66 3 6 C2.34 7.32 1.68 8.64 1 10 C-0.80411967 7.24075815 -1.0127245 6.11027897 -0.625 2.75 C-0.41875 1.8425 -0.2125 0.935 0 0 Z " fill="#6B6B6B" transform="translate(336,271)"/>
<path d="M0 0 C3.63 0.66 7.26 1.32 11 2 C10.34 2.66 9.68 3.32 9 4 C4.48986176 3.71211884 3.29485231 3.29485231 0 0 Z " fill="#969696" transform="translate(110,311)"/>
<path d="M0 0 C0 3 0 3 -2.5 5.6875 C-3.325 6.450625 -4.15 7.21375 -5 8 C-5.99 7.67 -6.98 7.34 -8 7 C-7.34 7 -6.68 7 -6 7 C-6 6.01 -6 5.02 -6 4 C-3.5625 2.375 -3.5625 2.375 -1 1 C-0.67 0.67 -0.34 0.34 0 0 Z " fill="#969696" transform="translate(280,305)"/>
<path d="M0 0 C2.31 0 4.62 0 7 0 C6.34 1.65 5.68 3.3 5 5 C4.67 3.68 4.34 2.36 4 1 C2.35 1.66 0.7 2.32 -1 3 C-0.67 2.01 -0.34 1.02 0 0 Z " fill="#929292" transform="translate(209,293)"/>
<path d="M0 0 C2.375 0.25 2.375 0.25 5 1 C6.3125 3.0625 6.3125 3.0625 7 5 C2.25 3.125 2.25 3.125 0 2 C0 1.34 0 0.68 0 0 Z " fill="#9C9C9C" transform="translate(302,255)"/>
<path d="M0 0 C0.66 0.33 1.32 0.66 2 1 C1.67 2.32 1.34 3.64 1 5 C1.99 5.33 2.98 5.66 4 6 C2.0625 6.5625 2.0625 6.5625 0 7 C-1 6 -1 6 -1.125 3.5 C-1 1 -1 1 0 0 Z " fill="#979797" transform="translate(333,300)"/>
<path d="M0 0 C0.66 0 1.32 0 2 0 C2 0.99 2 1.98 2 3 C1.01 3 0.02 3 -1 3 C-0.67 2.01 -0.34 1.02 0 0 Z " fill="#B1B1B1" transform="translate(317,270)"/>
<path d="M0 0 C0 3 0 3 0 3 Z " fill="#BDBDBD" transform="translate(190,269)"/>
</svg>
